<svg width="24" height="24" viewBox="0 0 24 24" fill="none" xmlns="http://www.w3.org/2000/svg">
<g id="&#240;&#159;&#159;&#168; icons / slots">
<path id="icons" d="M11.5545 14.4478C11.5764 14.4478 11.609 14.441 11.6522 14.4272C11.6955 14.4137 11.7356 14.4036 11.7722 14.3965C11.8083 14.3897 11.8409 14.3864 11.8699 14.3864C11.8989 14.3864 11.9275 14.3792 11.9572 14.3658C11.9858 14.3523 12.0148 14.3455 12.0438 14.3455C12.1451 14.3317 12.236 14.3216 12.3159 14.3145C12.3957 14.3077 12.4648 14.304 12.5228 14.304C12.6097 14.2909 12.686 14.2837 12.7515 14.2837H12.9799H13.1975C13.2698 14.2837 13.35 14.2909 13.4366 14.304C13.5093 14.3178 13.5744 14.3246 13.6324 14.3246H13.8286C13.9735 14.3384 14.1332 14.3624 14.3075 14.3965C14.4815 14.4309 14.6697 14.4755 14.873 14.5302C15.0037 14.4343 15.1304 14.3556 15.2535 14.2939C15.377 14.2324 15.4965 14.1882 15.6129 14.1605C15.6999 14.1193 15.7833 14.0819 15.8635 14.0478C15.9429 14.0137 16.0188 13.983 16.0919 13.9553C16.1788 13.9279 16.273 13.9006 16.3746 13.8733C16.4759 13.8459 16.5776 13.8118 16.6792 13.7703C16.7662 13.7572 16.8567 13.7369 16.9513 13.7089C17.0454 13.6819 17.1431 13.6545 17.2452 13.6272C17.3611 13.5995 17.4699 13.5856 17.5712 13.5856H17.898C18.0573 13.5856 18.2138 13.5965 18.3655 13.6167C18.518 13.6373 18.6741 13.6751 18.8337 13.7295C18.993 13.7845 19.1415 13.8493 19.2797 13.9246C19.4175 13.9999 19.5517 14.0924 19.6824 14.2017C19.8131 14.3115 19.9397 14.441 20.0632 14.5916C20.186 14.7422 20.2992 14.9129 20.4004 15.1047C20.5017 15.2826 20.5926 15.4946 20.6725 15.7406C20.7519 15.9867 20.821 16.2537 20.879 16.541C20.9227 16.856 20.9409 17.1672 20.9334 17.475C20.9262 17.7825 20.879 18.0937 20.7924 18.4087C20.705 18.7098 20.5887 18.9967 20.4441 19.2705C20.2992 19.5443 20.1248 19.7974 19.9215 20.0296C19.7185 20.2765 19.4898 20.5019 19.2364 20.7072C18.9822 20.9124 18.703 21.1038 18.3984 21.2817C18.0938 21.4461 17.7674 21.5824 17.4195 21.6921C17.0712 21.8015 16.7082 21.8835 16.3309 21.9386C16.2583 21.9386 16.186 21.9416 16.1133 21.9487C16.0406 21.9554 15.9612 21.9655 15.8742 21.9794C15.8012 21.9929 15.7289 22 15.6566 22H15.4386C15.1919 22 14.956 21.9861 14.7317 21.9592C14.5065 21.9311 14.2928 21.8974 14.0899 21.8562C13.8719 21.8015 13.6649 21.7435 13.4692 21.6817C13.2734 21.6202 13.074 21.5412 12.8707 21.4461C12.6824 21.3641 12.4974 21.2716 12.3159 21.1686C12.1344 21.0663 11.9572 20.9532 11.7829 20.8304C11.609 20.7072 11.4565 20.5772 11.3258 20.4405C11.1955 20.3038 11.0649 20.16 10.9342 20.0094C10.9195 19.9956 10.8981 19.9787 10.8687 19.9581C10.8397 19.9375 10.8182 19.9139 10.8036 19.8862C10.7889 19.8589 10.7781 19.8319 10.771 19.8042C10.7634 19.7768 10.7523 19.7428 10.738 19.7016C10.709 19.6881 10.684 19.6705 10.6622 19.6503C10.6403 19.6297 10.6221 19.6057 10.6078 19.5783C10.5931 19.551 10.5784 19.524 10.5645 19.496C10.5498 19.469 10.5351 19.4416 10.5204 19.4143C10.4914 19.3596 10.4624 19.3049 10.4338 19.2499C10.4044 19.1956 10.3754 19.1405 10.3464 19.0859C10.3175 19.0312 10.2885 18.9765 10.2595 18.9214C10.2305 18.8671 10.2082 18.8121 10.1943 18.7574C10.1796 18.7027 10.1578 18.648 10.1288 18.5934C10.0998 18.539 10.078 18.4773 10.0637 18.4087C10.0637 18.3544 10.0565 18.2956 10.0418 18.2342C10.0271 18.1724 10.0125 18.1147 9.99855 18.06C9.95487 17.8001 9.92548 17.5571 9.91118 17.3312C9.89649 17.1058 9.89649 16.89 9.91118 16.6848C9.92548 16.4934 9.95129 16.3151 9.98783 16.1511C10.024 15.9867 10.0708 15.8365 10.1288 15.6998C10.2015 15.5631 10.2813 15.4365 10.3687 15.32C10.4553 15.2039 10.5498 15.1047 10.6515 15.0223C10.7523 14.9403 10.858 14.8616 10.9672 14.7863C11.0756 14.7114 11.1876 14.6463 11.3039 14.5916C11.3329 14.5643 11.3619 14.5403 11.3913 14.5197C11.4199 14.4991 11.4489 14.4822 11.4783 14.4684C11.5073 14.4549 11.5323 14.4478 11.5545 14.4478ZM18.5073 6.76223C18.3472 6.83789 18.1951 6.90942 18.0502 6.97796C17.9048 7.0596 17.7598 7.13863 17.6153 7.21391C17.4699 7.28919 17.3389 7.36783 17.2233 7.44948C17.1069 7.54536 16.9946 7.64461 16.8861 7.74722C16.7769 7.84984 16.6717 7.96295 16.5704 8.08617C16.4687 8.1959 16.3746 8.31163 16.2876 8.43484C16.2003 8.55769 16.1205 8.68802 16.0482 8.82472C15.9465 8.97565 15.8635 9.13258 15.798 9.29662C15.7328 9.46103 15.6705 9.62507 15.6129 9.78949C15.5692 9.96739 15.5259 10.1415 15.4826 10.3127C15.4386 10.4839 15.4024 10.6584 15.3734 10.8359C15.3587 11.0138 15.348 11.1951 15.3409 11.3801C15.3337 11.5647 15.3301 11.7527 15.3301 11.9441C15.3301 12.122 15.3369 12.3033 15.352 12.4883C15.3663 12.6729 15.3877 12.8542 15.4171 13.0317C15.3155 13.0594 15.2285 13.0864 15.1558 13.1137C15.0831 13.1415 15.018 13.1755 14.96 13.2164C14.902 13.2302 14.8437 13.2508 14.7861 13.2782C14.7277 13.3055 14.6697 13.3396 14.6117 13.3804C14.5394 13.3673 14.4628 13.3534 14.3834 13.3396C14.3035 13.3261 14.2201 13.3126 14.1332 13.2988C14.0458 13.2853 13.9592 13.2748 13.8719 13.268C13.7849 13.2609 13.6979 13.2576 13.6109 13.2576C13.5815 13.0388 13.5565 12.8265 13.5347 12.6212C13.5132 12.416 13.5021 12.2044 13.5021 11.9853C13.5021 11.7801 13.5053 11.5647 13.5132 11.3385C13.52 11.113 13.5379 10.891 13.5672 10.6719C13.5815 10.4531 13.6145 10.2408 13.6649 10.0355C13.7158 9.83031 13.7777 9.61833 13.85 9.39961C13.908 9.18089 13.9842 8.97191 14.0784 8.77341C14.1729 8.57529 14.2777 8.37305 14.3941 8.16781C14.4088 8.15433 14.4235 8.1341 14.4378 8.10639C14.4521 8.07905 14.4668 8.04459 14.4815 8.00377C14.4954 7.97681 14.514 7.94909 14.5359 7.92175C14.5577 7.89441 14.5827 7.85996 14.6117 7.81913C14.3361 7.96969 14.0712 8.1371 13.8174 8.32211C13.5637 8.50675 13.3202 8.7015 13.0883 8.90674C12.8417 9.0985 12.6133 9.30673 12.4032 9.53294C12.1923 9.7584 11.9787 9.98798 11.7615 10.2202C11.5577 10.4393 11.3619 10.6647 11.1737 10.8977C10.9846 11.1303 10.8107 11.3692 10.6515 11.6157C10.4914 11.8621 10.3282 12.1014 10.1614 12.334C9.99458 12.5669 9.8389 12.7995 9.69355 13.0317C9.69355 13.0594 9.6864 13.0864 9.67211 13.1137C9.65741 13.1415 9.64311 13.1755 9.62842 13.2164C9.61373 13.2302 9.59903 13.2508 9.58513 13.2782C9.57044 13.3055 9.55574 13.3396 9.54145 13.3804C9.52715 13.422 9.51206 13.4493 9.49776 13.4628C9.48307 13.4763 9.47632 13.4972 9.47632 13.5242C9.46122 13.5519 9.44693 13.5793 9.43263 13.6066C9.41794 13.6339 9.40324 13.6609 9.38934 13.6886C9.46122 13.6886 9.5339 13.6987 9.60697 13.7193C9.67886 13.7396 9.75153 13.7572 9.82461 13.7703C9.91118 13.7984 9.99061 13.8186 10.0637 13.8321C10.1364 13.8459 10.2082 13.8598 10.2813 13.8733C10.2229 13.9141 10.165 13.9587 10.107 14.0066C10.049 14.0545 9.99061 14.0924 9.93302 14.1193C9.88974 14.1605 9.8389 14.2051 9.78092 14.2527C9.72294 14.301 9.67211 14.3455 9.62842 14.3864C9.52715 14.4961 9.43263 14.6118 9.34566 14.7354C9.25868 14.8583 9.17886 14.9882 9.10618 15.1253C9.01921 15.262 8.94653 15.4058 8.88855 15.556C8.83057 15.7065 8.78688 15.8638 8.75789 16.0283C8.7289 16.1788 8.70706 16.3395 8.69276 16.5103C8.67807 16.6814 8.67092 16.856 8.67092 17.0335C8.67092 17.2252 8.68204 17.4204 8.70348 17.6185C8.72532 17.817 8.75789 18.0121 8.80158 18.2031C8.81587 18.2994 8.83057 18.3851 8.84526 18.46C8.85956 18.5353 8.8814 18.6211 8.91039 18.7162C8.93938 18.7986 8.9648 18.8806 8.98625 18.963C9.00849 19.0447 9.03311 19.1267 9.06289 19.2091C9.10618 19.2911 9.14629 19.3731 9.18203 19.4551C9.21817 19.5375 9.25868 19.6128 9.30197 19.681C9.34566 19.7495 9.38537 19.8214 9.42191 19.8967C9.45805 19.972 9.49776 20.0435 9.54145 20.112C9.45447 20.1529 9.36353 20.2012 9.26941 20.2559C9.17489 20.3102 9.06964 20.3581 8.95368 20.3993C8.85201 20.4405 8.74359 20.4783 8.62763 20.512C8.51127 20.5465 8.3953 20.5772 8.27934 20.6042C8.16298 20.6457 8.04304 20.6832 7.92032 20.7173C7.79681 20.7513 7.67688 20.7686 7.56091 20.7686C7.44455 20.7821 7.32859 20.7959 7.21262 20.8098C7.09666 20.8229 6.97354 20.8304 6.84328 20.8304H6.62525C6.55258 20.8304 6.4803 20.8229 6.40762 20.8098C6.32065 20.7959 6.23685 20.7787 6.15742 20.7585C6.0776 20.7379 6.00175 20.7206 5.92907 20.7072C5.59507 20.6525 5.27935 20.5708 4.98229 20.4611C4.68483 20.3517 4.3981 20.2218 4.12288 20.0712C3.86156 19.9341 3.62209 19.7701 3.40485 19.5783C3.18722 19.387 2.99143 19.1817 2.81709 18.963C2.62805 18.7304 2.47634 18.4945 2.36038 18.2548C2.24401 18.0155 2.15664 17.7589 2.09866 17.4851C2.02638 17.2117 1.99382 16.9413 2.00097 16.6743C2.00811 16.4076 2.04822 16.138 2.1205 15.8638C2.17849 15.5904 2.25116 15.3373 2.33853 15.1047C2.42551 14.8721 2.52678 14.6601 2.64314 14.4684C2.7738 14.2909 2.90406 14.1268 3.03472 13.9759C3.16538 13.8253 3.30318 13.6954 3.44814 13.5856C3.5788 13.4763 3.71661 13.3909 3.86156 13.3295C4.00652 13.268 4.15902 13.2096 4.31867 13.1549C4.47832 13.1137 4.63757 13.083 4.79722 13.0628C4.95687 13.0422 5.11612 13.0317 5.27617 13.0317C5.5077 13.0317 5.72931 13.0456 5.93979 13.0729C6.15028 13.1003 6.35679 13.1482 6.56012 13.2164C6.76346 13.271 6.93701 13.3227 7.08236 13.3703C7.22732 13.4186 7.35083 13.4628 7.45249 13.5036C7.46639 13.4763 7.48109 13.4493 7.49578 13.422C7.51008 13.3943 7.51762 13.3673 7.51762 13.3396C7.53192 13.3126 7.53947 13.2853 7.53947 13.2576C7.53947 13.2302 7.54662 13.1958 7.56091 13.1549C7.57521 13.1415 7.5903 13.1242 7.6046 13.1036C7.6189 13.083 7.63359 13.0594 7.64828 13.0317C7.66218 13.0044 7.67688 12.977 7.69157 12.9497C7.70627 12.9227 7.71341 12.895 7.71341 12.8677C7.90206 12.5119 8.10857 12.1527 8.33375 11.7902C8.55853 11.428 8.80158 11.0617 9.06289 10.6925C9.33811 10.3228 9.62485 9.9569 9.9223 9.59436C10.2198 9.23183 10.5351 8.89326 10.8687 8.57829C11.2023 8.22287 11.5577 7.89441 11.9354 7.5933C12.3123 7.29293 12.7043 6.99818 13.1105 6.71092C13.516 6.42367 13.9517 6.17049 14.4159 5.9514C14.8802 5.73268 15.3587 5.5413 15.8524 5.37688C15.7654 5.37688 15.6784 5.3634 15.5911 5.33606C15.5041 5.30872 15.4171 5.28138 15.3301 5.25366C15.2428 5.24055 15.1558 5.21958 15.0692 5.19224C14.9819 5.16528 14.8949 5.13082 14.8075 5.08962C14.7062 5.06228 14.6153 5.03157 14.5359 4.99749C14.456 4.96341 14.3651 4.9327 14.2634 4.90498C14.1769 4.87764 14.0899 4.84319 14.0025 4.80236C13.9155 4.76154 13.8286 4.72746 13.7416 4.69975C13.074 4.39901 12.4898 4.07055 11.9898 3.71476C11.489 3.35933 11.0716 2.97583 10.738 2.56535C10.4044 2.15525 10.165 1.83691 10.0204 1.61144C9.87504 1.38523 9.82461 1.23842 9.86789 1.16988C9.89649 1.1152 10.078 1.07064 10.412 1.03656C10.7456 1.00285 11.217 0.992362 11.8266 1.00547C12.4358 1.06052 13.0593 1.17363 13.6979 1.34441C14.3361 1.51557 14.9819 1.75189 15.6344 2.05226C15.8663 2.14813 16.0839 2.24738 16.2876 2.35C16.4906 2.45262 16.6792 2.56535 16.8536 2.68857C17.0414 2.81179 17.2197 2.935 17.3865 3.05785C17.5529 3.18106 17.709 3.30428 17.8544 3.42712C18.014 3.53686 18.1625 3.64622 18.3004 3.75558C18.4382 3.86531 18.5648 3.97467 18.6812 4.08403C18.7825 4.20725 18.8806 4.32373 18.9751 4.43309C19.0692 4.54282 19.1526 4.64507 19.2253 4.74094L20.705 4.18703C20.7924 4.15931 20.8758 4.14545 20.9556 4.14545C21.0351 4.14545 21.1109 4.15931 21.184 4.18703C21.2852 4.21437 21.3583 4.25856 21.4016 4.31998C21.4449 4.38178 21.481 4.44694 21.51 4.51511L21.989 5.82818C22.0037 5.91057 22.0037 5.98211 21.989 6.04428C21.9743 6.1057 21.9457 6.17049 21.902 6.23903C21.8583 6.29408 21.8043 6.33491 21.7392 6.36187C21.6733 6.38959 21.5974 6.40344 21.51 6.40344L19.0081 6.58808C18.8337 6.6289 18.6665 6.68695 18.5073 6.76223Z" fill="white"/>
</g>
</svg>
